<?xml version="1.0" encoding="UTF-8"?>
<svg xmlns="http://www.w3.org/2000/svg" xmlns:xlink="http://www.w3.org/1999/xlink" width="128.84343pt" height="147.351395pt" viewBox="0 0 128.84343 147.351395" version="1.2">
<defs>
<clipPath id="clip1">
  <path d="M 59 82 L 124 82 L 124 146.707031 L 59 146.707031 Z M 59 82 "/>
</clipPath>
<clipPath id="clip2">
  <path d="M 15 53 L 69 53 L 69 146.707031 L 15 146.707031 Z M 15 53 "/>
</clipPath>
<clipPath id="clip3">
  <path d="M 0.203125 70 L 128.484375 70 L 128.484375 145 L 0.203125 145 Z M 0.203125 70 "/>
</clipPath>
<clipPath id="clip4">
  <path d="M 0.203125 51 L 126 51 L 126 136 L 0.203125 136 Z M 0.203125 51 "/>
</clipPath>
<clipPath id="clip5">
  <path d="M 0.203125 0 L 92 0 L 92 146.707031 L 0.203125 146.707031 Z M 0.203125 0 "/>
</clipPath>
<clipPath id="clip6">
  <path d="M 0.203125 110 L 83 110 L 83 146.707031 L 0.203125 146.707031 Z M 0.203125 110 "/>
</clipPath>
<clipPath id="clip7">
  <path d="M 0.203125 2 L 83 2 L 83 138 L 0.203125 138 Z M 0.203125 2 "/>
</clipPath>
<clipPath id="clip8">
  <path d="M 0.203125 119 L 74 119 L 74 146.707031 L 0.203125 146.707031 Z M 0.203125 119 "/>
</clipPath>
<clipPath id="clip9">
  <path d="M 0.203125 134 L 4 134 L 4 141 L 0.203125 141 Z M 0.203125 134 "/>
</clipPath>
<clipPath id="clip10">
  <path d="M 123 85 L 128.484375 85 L 128.484375 93 L 123 93 Z M 123 85 "/>
</clipPath>
<clipPath id="clip11">
  <path d="M 61 142 L 67 142 L 67 146.707031 L 61 146.707031 Z M 61 142 "/>
</clipPath>
</defs>
<g id="surface1">
<path style="fill:none;stroke-width:0.8;stroke-linecap:butt;stroke-linejoin:miter;stroke:rgb(35.293579%,35.293579%,35.293579%);stroke-opacity:1;stroke-dasharray:1.6,0.8;stroke-miterlimit:4;" d="M 20.098541 58.616259 L 119.020344 86.876829 " transform="matrix(0.995618,0,0,0.995618,0.204384,0)"/>
<g clip-path="url(#clip1)" clip-rule="nonzero">
<path style="fill:none;stroke-width:0.8;stroke-linecap:butt;stroke-linejoin:miter;stroke:rgb(0%,0%,0%);stroke-opacity:1;stroke-miterlimit:4;" d="M 118.894793 86.904293 L 64.421692 145.367537 " transform="matrix(0.995618,0,0,0.995618,0.204384,0)"/>
</g>
<path style="fill:none;stroke-width:1.6;stroke-linecap:butt;stroke-linejoin:miter;stroke:rgb(66.665649%,0%,0%);stroke-opacity:1;stroke-miterlimit:4;" d="M 58.438439 87.104388 L 58.438439 116.400747 " transform="matrix(0.995618,0,0,0.995618,0.204384,0)"/>
<g clip-path="url(#clip2)" clip-rule="nonzero">
<path style="fill:none;stroke-width:0.8;stroke-linecap:butt;stroke-linejoin:miter;stroke:rgb(35.293579%,35.293579%,35.293579%);stroke-opacity:1;stroke-dasharray:1.6,0.8;stroke-miterlimit:4;" d="M 20.326101 58.745732 L 64.421692 145.367537 " transform="matrix(0.995618,0,0,0.995618,0.204384,0)"/>
</g>
<g clip-path="url(#clip3)" clip-rule="nonzero">
<path style="fill:none;stroke-width:2.8;stroke-linecap:butt;stroke-linejoin:miter;stroke:rgb(100%,100%,100%);stroke-opacity:1;stroke-miterlimit:4;" d="M 6.146773 129.253951 L 118.883023 86.951374 " transform="matrix(0.995618,0,0,0.995618,0.204384,0)"/>
</g>
<path style=" stroke:none;fill-rule:evenodd;fill:rgb(100%,83.528137%,83.528137%);fill-opacity:1;" d="M 20.4375 58.507812 L 6.324219 128.6875 L 118.578125 86.527344 Z M 20.4375 58.507812 "/>
<g clip-path="url(#clip4)" clip-rule="nonzero">
<path style="fill:none;stroke-width:1.2;stroke-linecap:butt;stroke-linejoin:miter;stroke:rgb(0%,0%,0%);stroke-opacity:1;stroke-miterlimit:4;" d="M 20.326101 58.745732 L 6.244859 129.151942 L 118.894793 86.904293 " transform="matrix(0.995618,0,0,0.995618,0.204384,0)"/>
</g>
<path style=" stroke:none;fill-rule:nonzero;fill:rgb(0%,0%,0%);fill-opacity:1;" d="M 60.761719 86.121094 C 60.761719 86.65625 59.695312 87.089844 58.386719 87.089844 C 57.070312 87.089844 56.003906 86.65625 56.003906 86.121094 C 56.003906 85.585938 57.070312 85.152344 58.386719 85.152344 C 59.695312 85.152344 60.761719 85.585938 60.761719 86.121094 Z M 60.761719 86.121094 "/>
<path style="fill:none;stroke-width:2.56;stroke-linecap:round;stroke-linejoin:miter;stroke:rgb(100%,100%,100%);stroke-opacity:1;stroke-miterlimit:4;" d="M 58.438439 55.873771 L 58.438439 85.87635 " transform="matrix(0.995618,0,0,0.995618,0.204384,0)"/>
<path style="fill:none;stroke-width:1.6;stroke-linecap:round;stroke-linejoin:miter;stroke:rgb(66.665649%,0%,0%);stroke-opacity:1;stroke-miterlimit:4.1;" d="M 58.438439 55.960087 L 58.438439 85.911661 " transform="matrix(0.995618,0,0,0.995618,0.204384,0)"/>
<path style="fill:none;stroke-width:0.8;stroke-linecap:butt;stroke-linejoin:miter;stroke:rgb(0%,0%,0%);stroke-opacity:1;stroke-miterlimit:4;" d="M 20.326101 58.745732 L 73.159202 11.405453 L 118.894793 86.904293 " transform="matrix(0.995618,0,0,0.995618,0.204384,0)"/>
<g clip-path="url(#clip5)" clip-rule="nonzero">
<path style="fill:none;stroke-width:3.2;stroke-linecap:butt;stroke-linejoin:miter;stroke:rgb(100%,100%,100%);stroke-opacity:1;stroke-miterlimit:4;" d="M 73.253365 11.52708 L 6.244859 129.151942 " transform="matrix(0.995618,0,0,0.995618,0.204384,0)"/>
</g>
<g clip-path="url(#clip6)" clip-rule="nonzero">
<path style="fill:none;stroke-width:3.2;stroke-linecap:butt;stroke-linejoin:miter;stroke:rgb(100%,100%,100%);stroke-opacity:1;stroke-miterlimit:4;" d="M 64.421692 145.367537 L 6.244859 129.151942 " transform="matrix(0.995618,0,0,0.995618,0.204384,0)"/>
</g>
<g clip-path="url(#clip7)" clip-rule="nonzero">
<path style="fill:none;stroke-width:1.6;stroke-linecap:butt;stroke-linejoin:miter;stroke:rgb(0%,0%,0%);stroke-opacity:1;stroke-miterlimit:4;" d="M 73.296523 11.511386 L 6.146773 129.253951 " transform="matrix(0.995618,0,0,0.995618,0.204384,0)"/>
</g>
<path style=" stroke:none;fill-rule:nonzero;fill:rgb(0%,0%,0%);fill-opacity:1;" d="M 74.671875 11.53125 C 74.671875 12.398438 73.96875 13.101562 73.101562 13.101562 C 72.230469 13.101562 71.527344 12.398438 71.527344 11.53125 C 71.527344 10.660156 72.230469 9.957031 73.101562 9.957031 C 73.96875 9.957031 74.671875 10.660156 74.671875 11.53125 Z M 74.671875 11.53125 "/>
<path style=" stroke:none;fill-rule:nonzero;fill:rgb(0%,0%,0%);fill-opacity:1;" d="M 120.140625 86.574219 C 120.140625 87.445312 119.4375 88.148438 118.566406 88.148438 C 117.699219 88.148438 116.996094 87.445312 116.996094 86.574219 C 116.996094 85.707031 117.699219 85 118.566406 85 C 119.4375 85 120.140625 85.707031 120.140625 86.574219 Z M 120.140625 86.574219 "/>
<g clip-path="url(#clip8)" clip-rule="nonzero">
<path style="fill:none;stroke-width:1.6;stroke-linecap:butt;stroke-linejoin:miter;stroke:rgb(0%,0%,0%);stroke-opacity:1;stroke-miterlimit:4;" d="M 64.421692 145.367537 L 6.146773 129.253951 " transform="matrix(0.995618,0,0,0.995618,0.204384,0)"/>
</g>
<path style=" stroke:none;fill-rule:nonzero;fill:rgb(0%,0%,0%);fill-opacity:1;" d="M 8.800781 128.59375 C 8.800781 129.910156 7.734375 130.972656 6.417969 130.972656 C 5.109375 130.972656 4.042969 129.910156 4.042969 128.59375 C 4.042969 127.28125 5.109375 126.21875 6.417969 126.21875 C 7.734375 126.21875 8.800781 127.28125 8.800781 128.59375 Z M 8.800781 128.59375 "/>
<path style=" stroke:none;fill-rule:nonzero;fill:rgb(0%,0%,0%);fill-opacity:1;" d="M 22.015625 58.507812 C 22.015625 59.375 21.308594 60.078125 20.4375 60.078125 C 19.570312 60.078125 18.867188 59.375 18.867188 58.507812 C 18.867188 57.636719 19.570312 56.933594 20.4375 56.933594 C 21.308594 56.933594 22.015625 57.636719 22.015625 58.507812 Z M 22.015625 58.507812 "/>
<g clip-path="url(#clip9)" clip-rule="nonzero">
<path style=" stroke:none;fill-rule:nonzero;fill:rgb(0%,0%,0%);fill-opacity:1;" d="M 2.277344 134.011719 L 0.207031 134.632812 L 0.207031 135.023438 L 1.703125 134.757812 L 1.703125 139.890625 L 1.59375 140.0625 L 0.488281 140.125 L 0.488281 140.53125 L 3.691406 140.53125 L 3.691406 140.125 L 2.667969 140.078125 L 2.542969 139.9375 L 2.542969 134.011719 Z M 2.277344 134.011719 "/>
</g>
<path style=" stroke:none;fill-rule:nonzero;fill:rgb(0%,0%,0%);fill-opacity:1;" d="M 73.914062 5.769531 C 76.015625 4.085938 77.179688 3.015625 77.179688 1.816406 C 77.179688 0.726562 76.417969 0.0117188 75.191406 0.0117188 C 74.007812 0.0117188 73.167969 0.679688 73.167969 1.347656 C 73.167969 1.675781 73.371094 1.894531 73.695312 1.894531 C 73.851562 1.894531 73.992188 1.847656 74.132812 1.738281 L 74.132812 0.726562 C 74.414062 0.554688 74.691406 0.496094 74.972656 0.496094 C 75.765625 0.496094 76.25 1.023438 76.25 1.941406 C 76.25 3.183594 75.050781 4.226562 72.964844 5.921875 L 72.964844 6.53125 L 77.382812 6.53125 L 77.382812 4.957031 L 76.949219 4.957031 L 76.777344 5.769531 Z M 73.914062 5.769531 "/>
<path style=" stroke:none;fill-rule:nonzero;fill:rgb(0%,0%,0%);fill-opacity:1;" d="M 12.925781 55.882812 C 13.859375 55.617188 14.339844 55.074219 14.339844 54.34375 C 14.339844 53.378906 13.609375 52.742188 12.460938 52.742188 C 11.261719 52.742188 10.453125 53.378906 10.453125 54 C 10.453125 54.3125 10.65625 54.515625 10.964844 54.515625 C 11.121094 54.515625 11.246094 54.484375 11.355469 54.390625 L 11.355469 53.503906 C 11.632812 53.300781 11.929688 53.222656 12.257812 53.222656 C 13.003906 53.222656 13.46875 53.703125 13.46875 54.46875 C 13.46875 55.246094 12.957031 55.695312 11.992188 55.695312 C 11.929688 55.695312 11.851562 55.679688 11.789062 55.679688 L 11.789062 56.257812 C 11.976562 56.226562 12.148438 56.210938 12.304688 56.210938 C 13.222656 56.210938 13.71875 56.644531 13.71875 57.40625 C 13.71875 58.261719 13.082031 58.917969 12.210938 58.917969 C 11.929688 58.917969 11.664062 58.839844 11.402344 58.683594 L 11.105469 57.875 C 10.996094 57.84375 10.902344 57.828125 10.824219 57.828125 C 10.515625 57.828125 10.28125 58.03125 10.28125 58.308594 C 10.28125 58.808594 11.042969 59.367188 12.179688 59.367188 C 13.640625 59.367188 14.589844 58.496094 14.589844 57.421875 C 14.589844 56.550781 13.984375 55.960938 12.925781 55.882812 Z M 12.925781 55.882812 "/>
<g clip-path="url(#clip10)" clip-rule="nonzero">
<path style=" stroke:none;fill-rule:nonzero;fill:rgb(0%,0%,0%);fill-opacity:1;" d="M 126.847656 85.417969 L 123.59375 89.414062 L 123.59375 90.035156 L 126.660156 90.035156 L 126.660156 92.246094 L 127.40625 92.246094 L 127.40625 90.035156 L 128.480469 90.035156 L 128.480469 89.414062 L 127.40625 89.414062 L 127.40625 85.417969 Z M 126.660156 86.457031 L 126.660156 89.414062 L 124.308594 89.414062 Z M 126.660156 86.457031 "/>
</g>
<g clip-path="url(#clip11)" clip-rule="nonzero">
<path style=" stroke:none;fill-rule:nonzero;fill:rgb(0%,0%,0%);fill-opacity:1;" d="M 66.320312 144.527344 C 66.320312 145.730469 65.347656 146.707031 64.140625 146.707031 C 62.941406 146.707031 61.96875 145.730469 61.96875 144.527344 C 61.96875 143.328125 62.941406 142.351562 64.140625 142.351562 C 65.347656 142.351562 66.320312 143.328125 66.320312 144.527344 Z M 66.320312 144.527344 "/>
</g>
<path style=" stroke:none;fill-rule:nonzero;fill:rgb(66.665649%,0%,0%);fill-opacity:1;" d="M 60.761719 55.628906 C 60.761719 56.941406 59.695312 58.007812 58.386719 58.007812 C 57.070312 58.007812 56.003906 56.941406 56.003906 55.628906 C 56.003906 54.316406 57.070312 53.25 58.386719 53.25 C 59.695312 53.25 60.761719 54.316406 60.761719 55.628906 Z M 60.761719 55.628906 "/>
<path style=" stroke:none;fill-rule:nonzero;fill:rgb(66.665649%,0%,0%);fill-opacity:1;" d="M 60.761719 115.890625 C 60.761719 117.203125 59.695312 118.269531 58.386719 118.269531 C 57.070312 118.269531 56.003906 117.203125 56.003906 115.890625 C 56.003906 114.578125 57.070312 113.511719 58.386719 113.511719 C 59.695312 113.511719 60.761719 114.578125 60.761719 115.890625 Z M 60.761719 115.890625 "/>
<path style=" stroke:none;fill-rule:nonzero;fill:rgb(0%,0%,0%);fill-opacity:1;" d="M 59.355469 43.203125 L 56.789062 50.066406 L 56.148438 50.191406 L 56.148438 50.640625 L 58.296875 50.640625 L 58.296875 50.191406 L 57.597656 50.144531 L 57.488281 49.988281 L 58.265625 47.886719 L 60.847656 47.886719 L 61.625 49.988281 L 61.546875 50.144531 L 60.878906 50.191406 L 60.878906 50.640625 L 63.367188 50.640625 L 63.367188 50.191406 L 62.699219 50.066406 L 60.070312 43.203125 Z M 59.523438 44.355469 L 60.660156 47.390625 L 58.453125 47.390625 Z M 59.523438 44.355469 "/>
<path style=" stroke:none;fill-rule:nonzero;fill:rgb(0%,0%,0%);fill-opacity:1;" d="M 57.625 120.21875 L 57.625 120.652344 L 58.246094 120.714844 L 58.433594 120.871094 L 58.433594 126.90625 L 58.246094 127.0625 L 57.625 127.109375 L 57.625 127.558594 L 60.515625 127.558594 C 62.382812 127.558594 63.378906 126.796875 63.378906 125.414062 C 63.378906 124.339844 62.648438 123.671875 61.339844 123.65625 C 62.382812 123.375 62.929688 122.816406 62.929688 121.992188 C 62.929688 120.777344 62.089844 120.21875 60.421875 120.21875 Z M 59.425781 123.546875 L 59.425781 120.730469 C 59.691406 120.714844 59.910156 120.699219 60.050781 120.699219 C 61.246094 120.699219 61.839844 121.136719 61.839844 122.019531 C 61.839844 123.09375 61.203125 123.546875 59.832031 123.546875 C 59.707031 123.546875 59.566406 123.546875 59.425781 123.546875 Z M 59.425781 127.015625 L 59.425781 124.089844 C 59.847656 124.042969 60.207031 124.027344 60.5 124.027344 C 61.714844 124.027344 62.304688 124.496094 62.304688 125.492188 C 62.304688 126.59375 61.621094 127.046875 60.160156 127.046875 C 59.925781 127.046875 59.691406 127.03125 59.425781 127.015625 Z M 59.425781 127.015625 "/>
<path style="fill:none;stroke-width:0.8;stroke-linecap:butt;stroke-linejoin:miter;stroke:rgb(0%,0%,0%);stroke-opacity:1;stroke-miterlimit:4;" d="M 58.787626 81.450705 L 62.424659 84.479604 L 62.424659 89.835106 " transform="matrix(0.995618,0,0,0.995618,0.204384,0)"/>
</g>
</svg>
