<?xml version="1.0" encoding="UTF-8" standalone="no"?>
<!DOCTYPE svg PUBLIC "-//W3C//DTD SVG 1.1//EN"
 "http://www.w3.org/Graphics/SVG/1.1/DTD/svg11.dtd">
<!-- Generated by graphviz version 2.40.1 (20161225.0304)
 -->
<!-- Title: %3 Pages: 1 -->
<svg width="446pt" height="415pt"
 viewBox="0.00 0.00 446.00 415.00" xmlns="http://www.w3.org/2000/svg" xmlns:xlink="http://www.w3.org/1999/xlink">
<g id="graph0" class="graph" transform="scale(1 1) rotate(0) translate(4 411)">
<title>%3</title>
<polygon fill="#ffffff" stroke="transparent" points="-4,4 -4,-411 442,-411 442,4 -4,4"/>
<g id="clust1" class="cluster">
<title>cluster_0</title>
<polygon fill="none" stroke="#000000" points="-.1486,-331.6297 -.1486,-406.6297 72.8514,-406.6297 72.8514,-331.6297 -.1486,-331.6297"/>
<text text-anchor="middle" x="22.3514" y="-391.4297" font-family="Times,serif" font-size="14.00" fill="#000000">Input</text>
</g>
<g id="clust2" class="cluster">
<title>cluster_1</title>
<polygon fill="none" stroke="#000000" points="87.3706,-259.7827 87.3706,-388.7827 438.3706,-388.7827 438.3706,-259.7827 87.3706,-259.7827"/>
<text text-anchor="middle" x="136.3706" y="-373.5827" font-family="Times,serif" font-size="14.00" fill="#000000">Adhesion code</text>
</g>
<g id="clust3" class="cluster">
<title>cluster_2</title>
<polygon fill="none" stroke="#000000" points="52.4849,-.2626 52.4849,-246.2626 326.4849,-246.2626 326.4849,-.2626 52.4849,-.2626"/>
<text text-anchor="middle" x="79.4849" y="-231.0626" font-family="Times,serif" font-size="14.00" fill="#000000">Output</text>
</g>
<!-- YAML -->
<g id="node1" class="node">
<title>YAML</title>
<polygon fill="none" stroke="#000000" points="64.7142,-375.6669 7.7142,-375.6669 7.7142,-339.6669 64.7142,-339.6669 64.7142,-375.6669"/>
<text text-anchor="middle" x="36.2142" y="-353.9669" font-family="Times,serif" font-size="14.00" fill="#000000">YAML</text>
</g>
<!-- IC -->
<g id="node2" class="node">
<title>IC</title>
<ellipse fill="none" stroke="#000000" cx="165.7671" cy="-323.1792" rx="70.6878" ry="18"/>
<text text-anchor="middle" x="165.7671" y="-319.4792" font-family="Times,serif" font-size="14.00" fill="#000000">Initial conditions</text>
</g>
<!-- YAML&#45;&gt;IC -->
<g id="edge4" class="edge">
<title>YAML&#45;&gt;IC</title>
<path fill="none" stroke="#000000" d="M64.9661,-350.013C77.3221,-346.7237 92.2421,-342.7519 106.7712,-338.8842"/>
<polygon fill="#000000" stroke="#000000" points="107.9679,-342.1876 116.7309,-336.2329 106.1671,-335.4232 107.9679,-342.1876"/>
</g>
<!-- RT -->
<g id="node3" class="node">
<title>RT</title>
<ellipse fill="none" stroke="#000000" cx="341.0839" cy="-339.9928" rx="89.0842" ry="18"/>
<text text-anchor="middle" x="341.0839" y="-336.2928" font-family="Times,serif" font-size="14.00" fill="#000000">Regular Triangulation</text>
</g>
<!-- IC&#45;&gt;RT -->
<g id="edge1" class="edge">
<title>IC&#45;&gt;RT</title>
<path fill="none" stroke="#000000" d="M232.0468,-329.5357C238.0103,-330.1076 244.1143,-330.693 250.239,-331.2804"/>
<polygon fill="#000000" stroke="#000000" points="250.2566,-334.798 260.545,-332.2688 250.9249,-327.83 250.2566,-334.798"/>
</g>
<!-- HDF5 -->
<g id="node5" class="node">
<title>HDF5</title>
<polygon fill="none" stroke="#000000" points="158.5357,-215.0957 104.5357,-215.0957 104.5357,-179.0957 158.5357,-179.0957 158.5357,-215.0957"/>
<text text-anchor="middle" x="131.5357" y="-193.3957" font-family="Times,serif" font-size="14.00" fill="#000000">HDF5</text>
</g>
<!-- IC&#45;&gt;HDF5 -->
<g id="edge5" class="edge">
<title>IC&#45;&gt;HDF5</title>
<path fill="none" stroke="#000000" d="M160.8625,-305.1145C155.1686,-284.1421 145.7124,-249.3125 139.081,-224.8871"/>
<polygon fill="#000000" stroke="#000000" points="142.429,-223.8604 136.4311,-215.1268 135.6736,-225.6946 142.429,-223.8604"/>
</g>
<!-- DE -->
<g id="node4" class="node">
<title>DE</title>
<ellipse fill="none" stroke="#000000" cx="347.0519" cy="-285.9112" rx="64.9885" ry="18"/>
<text text-anchor="middle" x="347.0519" y="-282.2112" font-family="Times,serif" font-size="14.00" fill="#000000">Data extraction</text>
</g>
<!-- RT&#45;&gt;DE -->
<g id="edge2" class="edge">
<title>RT&#45;&gt;DE</title>
<path fill="none" stroke="#000000" d="M343.0712,-321.9844C343.3501,-319.4571 343.6421,-316.8108 343.9358,-314.1491"/>
<polygon fill="#000000" stroke="#000000" points="347.4349,-314.3489 345.053,-304.0253 340.4771,-313.5811 347.4349,-314.3489"/>
</g>
<!-- DE&#45;&gt;HDF5 -->
<g id="edge6" class="edge">
<title>DE&#45;&gt;HDF5</title>
<path fill="none" stroke="#000000" d="M310.4925,-270.8448C270.774,-254.4766 207.6966,-228.4821 168.0111,-212.1274"/>
<polygon fill="#000000" stroke="#000000" points="169.2771,-208.8636 158.6979,-208.2894 166.61,-215.3356 169.2771,-208.8636"/>
</g>
<!-- OBJ -->
<g id="node6" class="node">
<title>OBJ</title>
<polygon fill="none" stroke="#000000" points="318.004,-137.6059 215.004,-137.6059 215.004,-101.6059 318.004,-101.6059 318.004,-137.6059"/>
<text text-anchor="middle" x="266.504" y="-115.9059" font-family="Times,serif" font-size="14.00" fill="#000000">Wavefront OBJ</text>
</g>
<!-- DE&#45;&gt;OBJ -->
<g id="edge7" class="edge">
<title>DE&#45;&gt;OBJ</title>
<path fill="none" stroke="#000000" d="M338.2785,-267.797C324.1765,-238.6809 296.3751,-181.2801 279.8173,-147.0935"/>
<polygon fill="#000000" stroke="#000000" points="282.7756,-145.172 275.2666,-137.6978 276.4757,-148.2234 282.7756,-145.172"/>
</g>
<!-- VIZ -->
<g id="node7" class="node">
<title>VIZ</title>
<polygon fill="none" stroke="#000000" points="204.5783,-116.5269 60.5783,-116.5269 60.5783,-8.5269 204.5783,-8.5269 204.5783,-116.5269"/>
<image xlink:href="tiny.png" width="144px" height="108px" preserveAspectRatio="xMinYMin meet" x="60.5783" y="-116.527"/>
<text text-anchor="middle" x="132.5783" y="-105.3269" font-family="Times,serif" font-size="14.00" fill="#000000">Visualisation</text>
</g>
<!-- OBJ&#45;&gt;VIZ -->
<g id="edge3" class="edge">
<title>OBJ&#45;&gt;VIZ</title>
<path fill="none" stroke="#000000" d="M224.1291,-101.5458C220.968,-100.1985 217.722,-98.8151 214.4253,-97.41"/>
<polygon fill="#000000" stroke="#000000" points="215.6004,-94.1063 205.0288,-93.4052 212.8558,-100.5458 215.6004,-94.1063"/>
</g>
</g>
</svg>
